# xmcd
#
# Track frame offsets:
#	150
#	12568
#	22358
#	33593
#	45475
#	60060
#	74373
#	84807
#	98649
#	111067
#	123777
#	133284
#	146889
#	159666
#	173862
#	190701
#	200222
#	210375
#	223504
#	236771
#	248643
#	261053
#	271886
#	281618
#	294711
#
# Disc length: 4098 seconds
#
# Revision: 0
# Processed by: cddbd v1.5.2PL0 Copyright (c) Steve Scherf et al.
# Submitted via: dBpowerAMP V4.0
#
DISCID=74100019
DTITLE=Various Artist - The Jaxyson Records story
DYEAR=1900
DGENRE=Blues
TTITLE0=Joseph Butler - Texas blues
TTITLE1=Goldrush - All my  money is gone
TTITLE2=Black Diamond - Lonesome blues
TTITLE3=Goldrush - Hold that train conductor
TTITLE4=Johnny Fuller -Bad to worse
TTITLE5=Unkonown - Going back downd in old mobile
TTITLE6=Unknown - Jaxyson scratch
TTITLE7=Unknonwn - Weep below children
TTITLE8=Unknown- Ill meet you in the morning
TTITLE9=Unknown - Stand by me
TTITLE10=Sister Rita - Hand me down mys silver trumpet Gabriel
TTITLE11=Rainbow Gospel Singers - Today
TTITLE12=Rainbow Gospel Singers - On the battlefield
TTITLE13=Charles White - didnt it rain
TTITLE14=Charles White - Stand By me
TTITLE15=Unknown - Say a Word
TTITLE16=Unknown - Standin on Jordan
TTITLE17=Gospel Trumpets - Good morning to heaven
TTITLE18=Gospel Trumpets - Constantly Abiding
TTITLE19=Charlie White - How long
TTITLE20=Charlie White - Well done
TTITLE21=Brother Johnny Fuller - i Must tell Jesus
TTITLE22=Rev L.H. Narcisse - What could I do
TTITLE23=Susan Bennett - Singin in my soul
TTITLE24=Rev L.H. Narcisse - I'm going to tell God
EXTD=
EXTT0=
EXTT1=
EXTT2=
EXTT3=
EXTT4=
EXTT5=
EXTT6=
EXTT7=
EXTT8=
EXTT9=
EXTT10=
EXTT11=
EXTT12=
EXTT13=
EXTT14=
EXTT15=
EXTT16=
EXTT17=
EXTT18=
EXTT19=
EXTT20=
EXTT21=
EXTT22=
EXTT23=
EXTT24=
PLAYORDER=
